<?xml version="1.0" encoding="UTF-8" standalone="no"?>
<!-- Created with Inkscape (http://www.inkscape.org/) -->

<svg
   xmlns:dc="http://purl.org/dc/elements/1.1/"
   xmlns:cc="http://creativecommons.org/ns#"
   xmlns:rdf="http://www.w3.org/1999/02/22-rdf-syntax-ns#"
   xmlns:svg="http://www.w3.org/2000/svg"
   xmlns="http://www.w3.org/2000/svg"
   xmlns:sodipodi="http://sodipodi.sourceforge.net/DTD/sodipodi-0.dtd"
   xmlns:inkscape="http://www.inkscape.org/namespaces/inkscape"
   width="65px"
   height="65px"
   viewBox="0 0 65 65"
   version="1.1"
   id="SVGRoot"
   inkscape:version="0.92.4 5da689c313, 2019-01-14"
   sodipodi:docname="distro-alt.svg">
  <defs
     id="defs5262" />
  <sodipodi:namedview
     id="base"
     pagecolor="#ffffff"
     bordercolor="#666666"
     borderopacity="1.0"
     inkscape:pageopacity="0.0"
     inkscape:pageshadow="2"
     inkscape:zoom="11.139651"
     inkscape:cx="30.045156"
     inkscape:cy="35.734264"
     inkscape:document-units="px"
     inkscape:current-layer="layer1"
     showgrid="false"
     inkscape:window-width="1920"
     inkscape:window-height="1055"
     inkscape:window-x="0"
     inkscape:window-y="0"
     inkscape:window-maximized="1"
     inkscape:grid-bbox="true"
     showguides="true"
     inkscape:guide-bbox="true" />
  <metadata
     id="metadata5265">
    <rdf:RDF>
      <cc:Work
         rdf:about="">
        <dc:format>image/svg+xml</dc:format>
        <dc:type
           rdf:resource="http://purl.org/dc/dcmitype/StillImage" />
        <dc:title></dc:title>
      </cc:Work>
    </rdf:RDF>
  </metadata>
  <g
     inkscape:label="Layer 1"
     inkscape:groupmode="layer"
     id="layer1">
    <path
       d="M 11.083547,17.435332 V 61.813195 H 53.448524 V 17.435332 Z"
       style="fill:#fdd005;fill-opacity:1;fill-rule:nonzero;stroke:none;stroke-width:0.8569147"
       id="path13"
       inkscape:connector-curvature="0"
       inkscape:export-xdpi="1063"
       inkscape:export-ydpi="1063" />
    <path
       d="m 46.935953,35.872523 c -0.583264,0.130038 -1.574764,0.652188 -2.217343,0.978692 -0.11628,0.06551 -0.11628,0.261076 0,0.261076 0.175677,0.06551 0.292848,0.130128 0.408399,0.261072 0.292766,0.391207 0.642497,0.717708 0.642497,1.239858 0,0.586671 -0.291956,0.782318 -0.233452,1.304379 0.174948,1.0443 0.932996,2.087605 0.932996,3.197421 -0.05778,0.847748 -0.758048,0.847748 -1.166447,1.435324 -0.11709,0.195648 -0.175594,0.391206 -0.175594,0.652279 0,0.261075 -0.05778,0.717708 0.175594,0.717708 0.291226,0.06542 0.349813,-0.586762 0.641768,-0.586762 0.408318,0.06462 0.350624,0.717707 0.700356,0.717707 h 15.343691 c -0.0585,-0.196462 -0.174865,-0.456631 -0.291145,-0.522148 -0.758939,-0.783136 -2.684164,-1.827435 -3.033977,-3.066387 -0.583993,-1.892863 0.174866,-4.306152 0.408317,-6.394661 0.816635,-6.067255 0.52549,-9.39562 -0.466821,-14.419481 C 58.079303,18.777772 57.670987,16.233536 56.912938,13.428225 56.795767,12.906076 56.15481,12.18837 55.920628,11.731737 55.745682,11.405235 55.570817,10.817568 55.512311,10.426451 55.103994,8.2733305 55.279589,6.1857275 53.878962,4.3582929 53.353555,3.7061036 52.362055,3.6405859 51.720286,3.1839539 50.495337,2.4662468 49.270304,1.7485386 48.044543,0.90079344 47.869677,0.76975686 47.344269,0.57419967 47.053043,0.76975686 48.45286,1.8795753 49.386664,3.1839539 49.794981,5.1415178 c 0.174867,0.9132643 0.408319,1.6309725 -0.408317,2.1530309 -0.233451,0.1310365 -1.750439,1.2398566 -2.450711,3.1319023 -0.174866,0.391117 -1.166447,2.936258 -2.333623,5.350453 -1.399816,-0.848653 -2.800525,-0.913263 -3.792024,-0.913263 -1.050085,0 -2.917615,0.130038 -3.792835,0.847745 -1.865909,1.56636 -2.683353,3.588536 -3.266536,5.872605 -0.466904,1.761099 -0.75813,3.588534 -0.87522,5.415061 -0.11709,2.479625 0.11709,5.219418 0.349812,7.69913 0.175596,1.630974 0.349732,3.197333 0.466822,4.828303 0.291227,1.761102 0.233451,3.131903 0.174865,3.4575 -0.524597,1.827434 -1.34123,2.479714 -2.916804,2.806218 -0.233452,0 -0.350542,0.130129 -0.291956,0.261074 1.459213,0 2.916805,0 4.376017,0 v 0 h 5.367517 c 0.466093,0 0.583184,-0.261074 1.050086,-0.717707 0.641769,-0.717708 -0.233451,-1.957565 0,-3.588535 0.525407,-4.045983 2.100171,-7.699132 2.85822,-11.61417 0.11717,-0.456632 0.175676,-1.04421 0.234261,-1.696397 0.291227,1.566358 0.699543,3.066384 1.107861,4.567226 0.408317,1.565452 0.816634,2.414196 1.459213,2.805311 v 0 c -0.05859,0 -0.117171,0 -0.175676,0.06552 z"
       style="fill:#231f20;fill-opacity:1;fill-rule:nonzero;stroke:none;stroke-width:0.8569147"
       id="path15"
       inkscape:connector-curvature="0"
       inkscape:export-xdpi="1063"
       inkscape:export-ydpi="1063" />
    <path
       d="m 49.969848,45.854815 c 0.292037,-1.108822 0.466903,-1.892046 0.11709,-3.066386 -0.23418,-0.913265 -0.933725,-1.630971 -1.224951,-2.544236 -0.350542,-1.239858 -0.0585,-2.609754 -0.642498,-3.719482 -0.116361,-0.261075 -0.408317,-0.52215 -0.699543,-0.717706 -0.700354,-0.456632 -0.933806,-0.717708 -1.224951,-1.500026 -0.117173,-0.261076 -0.234262,-0.52206 -0.292847,-0.783135 -0.640959,-2.087603 -1.107861,-4.240723 -1.457593,-6.329234 -0.175676,1.109728 -0.292037,2.153121 -0.466903,3.262847 -0.291956,1.238952 -0.583993,2.414109 -0.933724,3.588446 -0.75813,2.478808 -1.516989,5.023951 -1.867529,7.633704 -0.05778,0.522059 -0.05778,0.978781 0,1.500843 0.05859,0.456629 0.409126,1.435412 0,1.956658 -0.408318,0.522149 -0.524679,0.653095 -0.932996,0.717707 -1.341231,0 -2.917615,0 -4.258846,0 0.291956,-0.130132 0.583182,-0.391116 0.758858,-0.717707 0.524679,-1.238953 -0.817444,-5.15399 -1.1094,-6.589405 -0.232722,-1.239765 -0.758129,-2.414106 -0.932995,-3.653962 -0.05858,-0.847838 -0.174865,-3.4575 -0.05858,-4.110594 0,-0.195649 0.116362,-0.261077 0.233452,0 0.11709,1.109726 -0.174866,3.588442 0.349731,4.8283 0.117171,0.326504 0.642578,0.130945 0.816716,-0.130129 0.466821,-0.653096 0.701082,-1.435415 0.933724,-2.218547 0.349731,-1.369898 0.642578,-2.153122 0.816634,-3.97965 0.175675,-1.761917 -0.174056,-2.349587 0,-4.110596 0.117091,-0.717708 -0.0585,-1.500931 0.292037,-2.675272 0.408316,-1.369897 0.758858,-2.284068 1.634077,-3.131813 0.699545,-0.783226 1.808134,-0.978783 2.799634,-1.109818 2.684164,0 2.334432,3.262849 2.917616,4.959338 0.174947,0.586762 0.700354,2.022086 0.99158,2.609752 0.233451,0.586673 0.641769,1.630973 0.933725,2.609756 0.233451,0.717707 0.174865,1.761916 0,2.15303 -0.175676,0.326594 0.117091,0.522151 0.349813,0.261075 0.291955,-0.522059 0.291955,-0.913265 0.46682,-1.500842 0.174866,-0.586762 0.291227,-1.500932 0.466904,-2.022177 0.291227,-0.914169 0.87522,-1.761915 1.050085,-2.740697 0.174866,-0.913263 0.05778,-1.826529 -0.233451,-2.739792 -0.174866,-0.326594 -0.816634,-2.414198 -1.166365,-3.001775 -0.816715,-0.978781 -1.459214,-1.108913 -2.801336,-2.283253 -0.232641,-0.19637 -0.524597,-0.39202 -0.816634,-0.587576 0.700353,-1.826528 1.634078,-3.458406 2.275846,-5.284933 0.525409,-1.5009334 1.399817,-2.2832521 2.391398,-3.1319045 1.691855,1.1089114 1.576303,1.174339 1.808944,3.3929795 -0.05859,1.174339 0.05858,2.348679 0,3.458404 0,0.456634 -0.291227,1.499935 -0.291227,1.95666 0.05859,0.717616 0,0.978691 0.116362,1.761917 0.05778,0.587577 0.583182,1.10882 0.466821,1.696489 -0.350541,2.609661 -1.342041,5.02386 -1.399816,7.633612 -0.05858,2.545141 0.349812,6.002641 2.274306,7.699131 0.23418,0.195557 0.701085,-0.13013 0.75886,-0.456634 0.291956,-1.500931 -0.116362,-3.131903 0.0585,-4.632743 0.11636,-0.978784 0.350622,-2.087605 0.641767,-3.066387 0.233452,-0.783226 0.816635,-2.609756 1.283537,-3.19733 0.117091,-0.261076 0.408317,-0.06462 0.291227,0.130945 -0.05778,0 -1.049276,2.414196 -1.457592,4.240725 -0.466903,1.957473 -0.875219,4.828302 0.23264,6.590219 0.349732,0.652279 1.108591,1.30447 1.633269,2.28325 0.292766,0.587578 0.466902,3.197332 0.350542,3.849519 -0.233453,1.82653 -2.216451,4.762877 -4.142566,4.958435 -0.699544,0 -1.399818,0 -2.100172,0 z"
       style="fill:#ffffff;fill-opacity:1;fill-rule:nonzero;stroke:none;stroke-width:0.8569147"
       id="path17"
       inkscape:connector-curvature="0"
       inkscape:export-xdpi="1063"
       inkscape:export-ydpi="1063" />
    <path
       d="m 46.527636,37.699052 v -0.13013 c -0.05858,-0.06543 -0.232641,-0.195559 -0.232641,-0.195559 -0.234262,-0.261072 -0.117173,-0.783132 0.232641,-0.848652 0.583993,-0.195555 1.22495,0 1.400626,0.58758 0.174866,0.522148 -0.11709,1.174336 -0.525488,1.565543 -0.349731,0.39202 -0.933724,0.06543 -1.166366,0.130945 -0.11709,0.06553 -0.11709,0.13013 -0.05858,0.195556 0.233451,0.130128 0.641768,0.130128 0.99158,0.130128 0.233371,0 0.466822,-0.130128 0.641769,-0.06461 0.11709,0.06461 0.175595,0.325685 0.175595,0.456631 0,0.325687 -0.175595,0.65219 -0.175595,0.913265 0.0585,0.195556 0.23337,0.195556 0.349731,0.326591 0.525407,0.913267 0.466903,1.435325 0.583993,2.283163 0.11709,1.044209 1.050086,1.305284 0.99231,1.56636 0,0.06461 -0.05857,0.130127 -0.175675,0.06461 -0.291227,-0.325687 -0.816635,-0.325687 -1.224952,-0.261074 -0.233451,0 -0.349812,0.392019 -0.641768,0.457538 -0.11636,0.06463 -0.350542,0 -0.409127,-0.196464 -0.174056,-0.261074 0.11709,-0.717708 -0.05778,-0.978782 -0.11628,-0.195555 -0.583182,-0.261076 -0.583182,-0.65219 0,-1.0443 -0.642579,-2.022176 -0.875221,-3.000868 -0.0585,-0.261075 -0.0585,-0.392019 0,-0.653094 0.174865,-0.456633 0.291227,-1.043394 0,-1.500027 -0.11709,-0.196463 0.525489,0.06462 0.75813,-0.196463 z"
       style="fill:#ffffff;fill-opacity:1;fill-rule:nonzero;stroke:none;stroke-width:0.8569147"
       id="path19"
       inkscape:connector-curvature="0"
       inkscape:export-xdpi="1063"
       inkscape:export-ydpi="1063" />
    <path
       d="m 47.752586,1.0963494 c 0.992311,0.5875786 2.217262,2.6751818 2.85903,3.7840936 0.292037,0.4566322 0.700354,0.06543 0.524678,-0.3256873 C 50.145523,2.9883965 48.978348,1.683928 47.752586,1.0963494 v 0 m -4.95847,17.1592726 c 0.758129,0.196462 1.750439,1.0443 1.98308,1.827434 0.234262,0.783227 0.292037,1.239859 0,3.523016 0,0.131038 0.234262,0.261077 0.292037,0 0.05778,-0.586669 0,0 0.05778,-0.260982 0.0585,-0.391204 0.292766,-0.325687 0.409046,-0.13013 -0.233451,-0.783226 -0.0585,-1.500933 0.816634,-1.435416 0.466903,0.06554 0.408398,0.456635 1.167258,0.65219 0.23264,0.06553 0.758047,-0.130039 0.875219,-0.586669 0.291145,-0.978782 0,-1.827437 -0.700354,-2.479625 -0.409127,-0.392112 -0.933725,-0.587668 -1.458403,-0.195649 -0.11709,0.130131 -0.292037,0.521247 -0.292037,0.717708 0.116362,0.847838 -0.291955,0.586763 -0.583183,0 -0.408317,-0.717708 -1.750358,-1.761915 -2.567073,-1.631877 v 0 m 4.842112,12.397393 c 0.350542,-1.239858 -0.05777,-3.066384 -0.291955,-4.437189 -0.116361,-0.456629 0.408317,-0.586669 0.525408,-0.130038 0.349812,1.826528 0.291227,3.197333 -0.233453,4.567227 v 0 M 49.561534,7.1645104 c -0.117091,0.064617 -0.583182,0.456632 -0.875219,0.6521892 0.641768,0.1301283 1.516988,0.6521881 1.925304,1.5009316 0.292038,0.7177068 0.524679,1.7610118 0.641769,2.4787178 0,-0.456633 -0.05859,-2.4787178 0.11709,-2.7397938 0.291227,-0.3920203 0.875221,-0.065516 1.283538,0.1300394 0.291226,0.1310366 0.466902,0.5221497 0.758128,0.717707 0.291957,0.1310364 0.583993,0.1955574 0.875139,0.065516 C 54.57851,9.9043016 54.871276,9.6432263 54.987637,9.3176285 55.162499,8.7299651 54.637092,6.3812869 53.470645,6.9034367 53.003824,7.098994 52.945237,7.8822198 52.536921,8.273333 52.30428,8.4688902 52.070019,8.5344079 51.778792,8.4688902 51.486835,8.468894 51.136294,8.2733367 50.845068,8.0122619 50.436751,7.6866639 50.028433,7.2945524 49.56153,7.164514 Z"
       style="fill:#f57215;fill-opacity:1;fill-rule:nonzero;stroke:none;stroke-width:0.8569147"
       id="path21"
       inkscape:connector-curvature="0"
       inkscape:export-xdpi="1063"
       inkscape:export-ydpi="1063" />
    <path
       d="m 47.053043,36.851215 c 0.174866,0 0.408317,0.261076 0.349731,0.326591 -0.11709,0.130132 -0.174865,-0.06551 -0.408316,-0.06551 -0.174866,0 -0.349731,0.06551 -0.349731,-0.06543 0,-0.130129 0.174865,-0.195646 0.408316,-0.195645 z"
       style="fill:#231f20;fill-opacity:1;fill-rule:nonzero;stroke:none;stroke-width:0.8569147"
       id="path23"
       inkscape:connector-curvature="0"
       inkscape:export-xdpi="1063"
       inkscape:export-ydpi="1063" />
    <path
       d="M 4.3861426,35.122012 0.68908676,34.697279 c 0.13929305,-0.72387 0.34065594,-1.293778 0.60376474,-1.709719 0.2627847,-0.415039 0.6413632,-0.775253 1.1359786,-1.081457 0.3549174,-0.21948 0.8427261,-0.390208 1.4639126,-0.511456 0.6211863,-0.12034 1.2930173,-0.180606 2.015493,-0.180606 1.1601259,0 2.0919054,0.0726 2.7953387,0.21776 0.7035143,0.145082 1.2895336,0.447751 1.7587856,0.907101 0.32915,0.318527 0.589098,0.769904 0.77944,1.353043 0.189857,0.584131 0.285231,1.141625 0.285231,1.671659 v 4.977915 c 0,0.530939 0.03006,0.946068 0.09019,1.246924 0.06021,0.300859 0.191558,0.684089 0.394137,1.151322 H 8.3890917 c -0.1456133,-0.29116 -0.2401769,-0.513268 -0.284501,-0.665509 -0.044321,-0.15215 -0.088243,-0.392925 -0.1325674,-0.71943 -0.5079856,0.54689 -1.0124867,0.937189 -1.5134228,1.170807 -0.6856872,0.313269 -1.4821445,0.468956 -2.3893716,0.468956 -1.2059897,0 -2.1211578,-0.31146 -2.7463148,-0.934471 -0.62507585,-0.623009 -0.93769489,-1.392007 -0.93769489,-2.306176 0,-0.856628 0.22518616,-1.561105 0.67580149,-2.114156 0.4506965,-0.552234 1.2823213,-0.962832 2.4946315,-1.232789 1.4532974,-0.325688 2.3957732,-0.553958 2.8274272,-0.684904 0.4312489,-0.131035 0.8882658,-0.302667 1.3709697,-0.515081 0,-0.523872 -0.098939,-0.892058 -0.2960077,-1.100846 C 7.2610541,33.895474 6.914402,33.791084 6.418247,33.791084 c -0.6361772,0 -1.1129657,0.113267 -1.4310948,0.33801 -0.248037,0.176163 -0.4482655,0.507106 -0.6010096,0.992918 m 3.3679065,2.265489 c -0.5349691,0.212412 -1.0916546,0.399178 -1.6708668,0.561116 -0.7894074,0.23362 -1.2891278,0.4637 -1.4991612,0.689343 -0.2164347,0.232802 -0.3244495,0.498228 -0.3244495,0.794736 0,0.338917 0.1063941,0.616755 0.3196687,0.831888 0.2132745,0.215038 0.5266229,0.322966 0.9404501,0.322966 0.4328694,0 0.8352711,-0.116812 1.2080154,-0.34952 0.3722581,-0.232801 0.6365824,-0.51771 0.7924867,-0.853183 0.1559044,-0.335383 0.2338566,-0.770719 0.2338566,-1.308819 z"
       style="fill:#231f20;fill-opacity:1;fill-rule:nonzero;stroke:none;stroke-width:0.8569147"
       id="path25"
       inkscape:connector-curvature="0"
       inkscape:export-xdpi="1063"
       inkscape:export-ydpi="1063" />
    <path
       d="m 13.964292,27.164523 h 3.874352 v 15.575242 h -3.874352 z"
       style="fill:#231f20;fill-opacity:1;fill-rule:nonzero;stroke:none;stroke-width:0.8569147"
       id="path27"
       inkscape:connector-curvature="0"
       inkscape:export-xdpi="1063"
       inkscape:export-ydpi="1063" />
    <path
       d="m 24.973213,27.164523 v 4.304432 h 2.127073 v 3.171687 h -2.127073 v 3.984995 c 0,0.478744 0.04109,0.796456 0.123815,0.951324 0.126976,0.23978 0.349408,0.359216 0.667456,0.359216 0.286121,0 0.686498,-0.09198 1.201614,-0.274304 l 0.286122,2.98229 c -0.957547,0.233618 -1.851729,0.350426 -2.681814,0.350426 -0.963869,0 -1.674028,-0.138014 -2.130638,-0.41232 C 21.983156,42.30615 21.64566,41.888394 21.426876,41.327368 21.208091,40.766343 21.09886,39.856615 21.09886,38.5999 v -3.959258 h -1.418048 v -3.171687 h 1.418048 v -2.07791 z"
       style="fill:#231f20;fill-opacity:1;fill-rule:nonzero;stroke:none;stroke-width:0.8569147"
       id="path29"
       inkscape:connector-curvature="0"
       inkscape:export-xdpi="1063"
       inkscape:export-ydpi="1063" />
    <path
       d="m 13.967858,45.040688 h 3.874352 v 15.57524 h -3.874352 z"
       style="fill:#231f20;fill-opacity:1;fill-rule:nonzero;stroke:none;stroke-width:0.8569147"
       id="path31"
       inkscape:connector-curvature="0"
       inkscape:export-xdpi="1063"
       inkscape:export-ydpi="1063" />
    <path
       d="m 20.469408,45.040688 h 3.874272 v 2.945136 h -3.874272 v -2.945136 m 0,4.30443 h 3.874272 v 11.27081 h -3.874272 z"
       style="fill:#231f20;fill-opacity:1;fill-rule:nonzero;stroke:none;stroke-width:0.8569147"
       id="path33"
       inkscape:connector-curvature="0"
       inkscape:export-xdpi="1063"
       inkscape:export-ydpi="1063" />
    <path
       d="m 26.793664,49.345118 h 3.607596 v 1.843293 c 0.537319,-0.75305 1.080554,-1.291147 1.630514,-1.613209 0.549959,-0.323965 1.219846,-0.484996 2.009982,-0.484996 1.067831,0 1.903508,0.355772 2.507273,1.067225 0.60336,0.710639 0.905282,1.808858 0.905282,3.294747 v 7.16375 H 33.58004 v -6.1885 c 0,-0.706199 -0.117172,-1.206238 -0.351028,-1.499119 -0.234181,-0.292975 -0.563006,-0.439868 -0.986314,-0.439868 -0.468118,0 -0.847507,0.198275 -1.138328,0.592922 -0.291227,0.396461 -0.436435,1.106194 -0.436435,2.131011 v 5.403554 h -3.874271 z"
       style="fill:#231f20;fill-opacity:1;fill-rule:nonzero;stroke:none;stroke-width:0.8569147"
       id="path35"
       inkscape:connector-curvature="0"
       inkscape:export-xdpi="1063"
       inkscape:export-ydpi="1063" />
    <path
       d="m 50.400367,60.615928 h -3.617159 v -1.823083 c -0.537318,0.749605 -1.079337,1.283262 -1.626138,1.600886 -0.546799,0.317712 -1.2179,0.477019 -2.013953,0.477019 -1.061916,0 -1.894837,-0.355772 -2.498197,-1.066318 -0.603764,-0.71064 -0.905281,-1.80623 -0.905281,-3.28496 v -7.174354 h 3.874352 v 6.201733 c 0,0.70801 0.116684,1.210589 0.350946,1.507999 0.233776,0.297325 0.562601,0.44603 0.986395,0.44603 0.461313,0 0.839161,-0.198274 1.133548,-0.594735 0.293982,-0.396462 0.441134,-1.107915 0.441134,-2.134545 v -5.426482 h 3.874353 z"
       style="fill:#231f20;fill-opacity:1;fill-rule:nonzero;stroke:none;stroke-width:0.8569147"
       id="path37"
       inkscape:connector-curvature="0"
       inkscape:export-xdpi="1063"
       inkscape:export-ydpi="1063" />
    <path
       d="m 51.900662,49.345118 h 4.583377 l 1.582624,3.141599 1.86121,-3.141599 h 4.254145 l -3.432406,5.369844 3.685629,5.900966 h -4.507368 l -1.86121,-3.630129 -2.190358,3.630129 h -4.178221 l 3.663833,-5.900966 z"
       style="fill:#231f20;fill-opacity:1;fill-rule:nonzero;stroke:none;stroke-width:0.8569147"
       id="path39"
       inkscape:connector-curvature="0"
       inkscape:export-xdpi="1063"
       inkscape:export-ydpi="1063" />
    <path
       d="M 4.1519619,64.375193 4.9661651,62.838918 H 5.286644 l 0.8277355,1.536275 H 5.7381509 L 5.5664453,64.042437 H 4.6580028 L 4.4862973,64.375193 H 4.1519619 m 0.648413,-0.615942 H 5.4303127 L 5.1086182,63.121198 Z"
       style="fill:#231f20;fill-opacity:1;fill-rule:nonzero;stroke:none;stroke-width:0.8569147"
       id="path41"
       inkscape:connector-curvature="0"
       inkscape:export-xdpi="1063"
       inkscape:export-ydpi="1063" />
    <path
       d="M 9.3698953,64.375193 V 62.838918 H 9.711767 v 1.24602 h 1.078932 v 0.290255 z"
       style="fill:#231f20;fill-opacity:1;fill-rule:nonzero;stroke:none;stroke-width:0.8569147"
       id="path43"
       inkscape:connector-curvature="0"
       inkscape:export-xdpi="1063"
       inkscape:export-ydpi="1063" />
    <path
       d="m 14.49213,63.115036 v 1.260157 H 14.15658 V 63.115036 H 13.4982 v -0.276118 h 1.65863 v 0.276118 z"
       style="fill:#231f20;fill-opacity:1;fill-rule:nonzero;stroke:none;stroke-width:0.8569147"
       id="path45"
       inkscape:connector-curvature="0"
       inkscape:export-xdpi="1063"
       inkscape:export-ydpi="1063" />
    <path
       d="m 21.171708,64.375193 v -1.536275 h 0.341789 v 1.24602 h 1.079014 v 0.290255 z"
       style="fill:#231f20;fill-opacity:1;fill-rule:nonzero;stroke:none;stroke-width:0.8569147"
       id="path47"
       inkscape:connector-curvature="0"
       inkscape:export-xdpi="1063"
       inkscape:export-ydpi="1063" />
    <path
       d="m 25.660845,64.375193 v -1.536275 h 0.33555 v 1.536275 z"
       style="fill:#231f20;fill-opacity:1;fill-rule:nonzero;stroke:none;stroke-width:0.8569147"
       id="path49"
       inkscape:connector-curvature="0"
       inkscape:export-xdpi="1063"
       inkscape:export-ydpi="1063" />
    <path
       d="m 29.304096,64.375193 v -1.536275 h 0.233855 l 1.165233,1.021194 v -1.021194 h 0.303867 v 1.536275 H 30.774734 L 29.614284,63.3424 v 1.032793 z"
       style="fill:#231f20;fill-opacity:1;fill-rule:nonzero;stroke:none;stroke-width:0.8569147"
       id="path51"
       inkscape:connector-curvature="0"
       inkscape:export-xdpi="1063"
       inkscape:export-ydpi="1063" />
    <path
       d="m 34.64706,62.838918 v 1.24602 h 0.949607 v -1.24602 h 0.341871 v 1.172526 c 0,0.140733 -0.02536,0.236338 -0.07561,0.28763 -0.04862,0.05048 -0.143993,0.07612 -0.285636,0.07612 H 34.66569 c -0.139699,0 -0.233856,-0.02565 -0.282476,-0.07612 -0.04788,-0.04958 -0.07163,-0.145084 -0.07163,-0.28763 v -1.172526 z"
       style="fill:#231f20;fill-opacity:1;fill-rule:nonzero;stroke:none;stroke-width:0.8569147"
       id="path53"
       inkscape:connector-curvature="0"
       inkscape:export-xdpi="1063"
       inkscape:export-ydpi="1063" />
    <path
       d="M 38.94156,64.375193 39.621333,63.58762 38.92811,62.838918 h 0.448751 l 0.462122,0.499948 0.435624,-0.499948 h 0.386925 l -0.627506,0.704387 0.774335,0.831888 h -0.458962 l -0.526622,-0.572536 -0.485136,0.572536 z"
       style="fill:#231f20;fill-opacity:1;fill-rule:nonzero;stroke:none;stroke-width:0.8569147"
       id="path55"
       inkscape:connector-curvature="0"
       inkscape:export-xdpi="1063"
       inkscape:export-ydpi="1063" />
    <path
       d="m 47.345404,63.115036 v 1.260157 h -0.33547 v -1.260157 h -0.65838 v -0.276118 h 1.658631 v 0.276118 z"
       style="fill:#231f20;fill-opacity:1;fill-rule:nonzero;stroke:none;stroke-width:0.8569147"
       id="path57"
       inkscape:connector-curvature="0"
       inkscape:export-xdpi="1063"
       inkscape:export-ydpi="1063" />
    <path
       d="m 51.325017,64.375193 v -1.536275 h 1.475012 v 0.276118 h -1.133142 v 0.332755 h 0.660325 v 0.268959 h -0.660325 v 0.368188 h 1.149754 v 0.290255 z"
       style="fill:#231f20;fill-opacity:1;fill-rule:nonzero;stroke:none;stroke-width:0.8569147"
       id="path59"
       inkscape:connector-curvature="0"
       inkscape:export-xdpi="1063"
       inkscape:export-ydpi="1063" />
    <path
       d="m 55.571221,64.375193 0.814285,-1.536275 h 0.320478 l 0.827735,1.536275 h -0.376308 l -0.171706,-0.332756 h -0.908442 l -0.171706,0.332756 h -0.334336 m 0.648495,-0.615942 h 0.629856 l -0.321613,-0.638053 z"
       style="fill:#231f20;fill-opacity:1;fill-rule:nonzero;stroke:none;stroke-width:0.8569147"
       id="path61"
       inkscape:connector-curvature="0"
       inkscape:export-xdpi="1063"
       inkscape:export-ydpi="1063" />
    <path
       d="m 60.795556,64.375193 v -1.536275 h 0.265864 l 0.673047,0.912358 0.667455,-0.912358 h 0.273805 v 1.536275 H 62.359219 V 63.32029 l -0.611301,0.869948 h -0.06491 l -0.621591,-0.844213 v 1.029168 z"
       style="fill:#231f20;fill-opacity:1;fill-rule:nonzero;stroke:none;stroke-width:0.8569147"
       id="path63"
       inkscape:connector-curvature="0"
       inkscape:export-xdpi="1063"
       inkscape:export-ydpi="1063" />
  </g>
</svg>
